<svg xmlns="http://www.w3.org/2000/svg" xmlns:xlink="http://www.w3.org/1999/xlink" width="500" zoomAndPan="magnify" viewBox="0 0 375 374.999991" height="500" preserveAspectRatio="xMidYMid meet" version="1.0"><defs><g/></defs><g fill="#587d71" fill-opacity="1"><g transform="translate(70.078879, 213.485575)"><g><path d="M 44.359375 -21.59375 C 44.878906 -17.125 43.710938 -13.09375 40.859375 -9.5 C 39.679688 -7.945312 38.515625 -6.84375 37.359375 -6.1875 C 28.109375 -0.726562 19.1875 0.695312 10.59375 -1.90625 C 8.820312 -2.46875 7.007812 -3.472656 5.15625 -4.921875 C 3.5625 -6.148438 3.035156 -7.929688 3.578125 -10.265625 C 3.898438 -11.785156 4.0625 -13.367188 4.0625 -15.015625 C 4.007812 -17.960938 3.957031 -20.890625 3.90625 -23.796875 C 3.863281 -26.703125 3.820312 -29.597656 3.78125 -32.484375 C 3.75 -34.804688 3.707031 -37.132812 3.65625 -39.46875 C 3.601562 -41.8125 3.5625 -44.140625 3.53125 -46.453125 L 3.515625 -46.734375 C 3.546875 -47.265625 3.492188 -47.820312 3.359375 -48.40625 C 3.222656 -48.988281 2.71875 -49.523438 1.84375 -50.015625 C 1.363281 -50.285156 1.070312 -50.675781 0.96875 -51.1875 C 0.894531 -51.800781 1.085938 -52.359375 1.546875 -52.859375 L 2.171875 -53.515625 C 2.953125 -54.296875 3.765625 -55.085938 4.609375 -55.890625 C 5.460938 -56.703125 6.359375 -57.242188 7.296875 -57.515625 C 12.722656 -59.109375 18.007812 -60.082031 23.15625 -60.4375 C 23.4375 -60.5 23.742188 -60.535156 24.078125 -60.546875 C 30.367188 -60.753906 34.925781 -58.109375 37.75 -52.609375 C 40.332031 -47.691406 39.75 -43.128906 36 -38.921875 C 35.8125 -38.734375 35.601562 -38.539062 35.375 -38.34375 C 35.144531 -38.144531 34.894531 -37.945312 34.625 -37.75 C 34.476562 -37.65625 34.335938 -37.546875 34.203125 -37.421875 C 34.066406 -37.296875 33.925781 -37.1875 33.78125 -37.09375 L 32.96875 -36.421875 L 33.828125 -35.890625 C 34.109375 -35.660156 34.382812 -35.453125 34.65625 -35.265625 C 34.925781 -35.085938 35.179688 -34.90625 35.421875 -34.71875 C 35.898438 -34.351562 36.347656 -34.023438 36.765625 -33.734375 C 37.179688 -33.441406 37.582031 -33.132812 37.96875 -32.8125 C 41.65625 -29.90625 43.785156 -26.164062 44.359375 -21.59375 Z M 13.8125 -39.84375 L 13.84375 -38.921875 L 14.765625 -39.15625 C 15.222656 -39.269531 15.65625 -39.390625 16.0625 -39.515625 C 16.46875 -39.648438 16.875 -39.773438 17.28125 -39.890625 C 18.226562 -40.109375 19.144531 -40.347656 20.03125 -40.609375 C 20.925781 -40.878906 21.796875 -41.191406 22.640625 -41.546875 C 23.992188 -42.109375 24.96875 -42.660156 25.5625 -43.203125 C 26.15625 -43.742188 26.613281 -44.210938 26.9375 -44.609375 L 27.28125 -45.09375 C 27.550781 -45.625 27.800781 -46.222656 28.03125 -46.890625 C 28.269531 -47.554688 28.257812 -48.242188 28 -48.953125 C 27.738281 -49.660156 27.179688 -50.210938 26.328125 -50.609375 C 25.398438 -50.992188 24.085938 -51.28125 22.390625 -51.46875 C 21.578125 -51.488281 20.796875 -51.472656 20.046875 -51.421875 C 19.296875 -51.378906 18.398438 -51.222656 17.359375 -50.953125 C 16.328125 -50.679688 15.015625 -50.234375 13.421875 -49.609375 L 12.875 -49.390625 L 12.890625 -48.8125 C 12.984375 -47.769531 13.070312 -46.910156 13.15625 -46.234375 C 13.238281 -45.554688 13.316406 -44.914062 13.390625 -44.3125 C 13.453125 -43.695312 13.515625 -43.054688 13.578125 -42.390625 C 13.648438 -41.734375 13.726562 -40.882812 13.8125 -39.84375 Z M 33.5625 -19.671875 C 33.820312 -22.003906 32.878906 -24.109375 30.734375 -25.984375 C 29.367188 -27.210938 27.929688 -28.035156 26.421875 -28.453125 C 24.921875 -28.878906 23.414062 -29.066406 21.90625 -29.015625 C 20.394531 -28.972656 18.882812 -28.859375 17.375 -28.671875 L 15.96875 -28.546875 C 15.488281 -28.492188 15.113281 -28.175781 14.84375 -27.59375 C 14.582031 -27.019531 14.429688 -26.566406 14.390625 -26.234375 C 14.421875 -25.523438 14.445312 -24.800781 14.46875 -24.0625 C 14.488281 -23.332031 14.507812 -22.613281 14.53125 -21.90625 L 14.59375 -20.34375 L 14.6875 -19.5625 C 14.695312 -19.375 14.703125 -19.207031 14.703125 -19.0625 C 14.710938 -18.925781 14.71875 -18.785156 14.71875 -18.640625 C 14.738281 -17.984375 14.757812 -17.332031 14.78125 -16.6875 C 14.800781 -16.050781 14.796875 -15.410156 14.765625 -14.765625 C 14.734375 -12.898438 15.671875 -11.90625 17.578125 -11.78125 C 18.191406 -11.757812 18.78125 -11.757812 19.34375 -11.78125 C 22.894531 -11.894531 26.410156 -12.882812 29.890625 -14.75 C 32.078125 -15.894531 33.300781 -17.535156 33.5625 -19.671875 Z M 33.5625 -19.671875 "/></g></g></g><g fill="#587d71" fill-opacity="1"><g transform="translate(117.787139, 211.934381)"><g><path d="M 30.90625 -29.171875 C 31.132812 -28.523438 31.203125 -27.757812 31.109375 -26.875 C 31.015625 -26 30.757812 -25.316406 30.34375 -24.828125 C 29.988281 -24.347656 29.398438 -24.007812 28.578125 -23.8125 C 27.753906 -23.613281 26.988281 -23.53125 26.28125 -23.5625 C 25.570312 -23.582031 24.851562 -23.757812 24.125 -24.09375 C 23.394531 -24.425781 22.695312 -24.742188 22.03125 -25.046875 C 21.070312 -25.503906 20.238281 -25.613281 19.53125 -25.375 C 18.832031 -25.132812 18.359375 -24.554688 18.109375 -23.640625 C 17.023438 -20.347656 16.160156 -16.96875 15.515625 -13.5 C 15.347656 -12.738281 15.335938 -11.941406 15.484375 -11.109375 C 15.640625 -10.285156 15.679688 -9.472656 15.609375 -8.671875 C 15.515625 -6.921875 14.910156 -5.46875 13.796875 -4.3125 C 12.679688 -3.164062 11.328125 -2.519531 9.734375 -2.375 C 8.078125 -2.226562 6.617188 -2.617188 5.359375 -3.546875 C 4.097656 -4.484375 3.226562 -5.789062 2.75 -7.46875 C 2.632812 -7.894531 2.535156 -8.316406 2.453125 -8.734375 C 2.367188 -9.160156 2.316406 -9.609375 2.296875 -10.078125 C 2.210938 -14.285156 2.113281 -18.503906 2 -22.734375 C 1.882812 -26.972656 1.785156 -31.195312 1.703125 -35.40625 C 1.679688 -35.832031 1.6875 -36.289062 1.71875 -36.78125 C 1.75 -37.28125 1.898438 -37.675781 2.171875 -37.96875 C 2.617188 -38.5625 3.128906 -39.179688 3.703125 -39.828125 C 4.285156 -40.484375 4.878906 -40.847656 5.484375 -40.921875 C 6.097656 -40.984375 6.78125 -40.800781 7.53125 -40.375 C 8.28125 -39.957031 8.925781 -39.472656 9.46875 -38.921875 C 9.894531 -38.460938 10.226562 -37.867188 10.46875 -37.140625 C 10.707031 -36.421875 10.976562 -35.6875 11.28125 -34.9375 C 15.738281 -37.539062 20.226562 -37.78125 24.75 -35.65625 C 26.238281 -34.988281 27.519531 -34.128906 28.59375 -33.078125 C 29.675781 -32.023438 30.445312 -30.722656 30.90625 -29.171875 Z M 30.90625 -29.171875 "/></g></g></g><g fill="#587d71" fill-opacity="1"><g transform="translate(152.451832, 210.807288)"><g><path d="M 36 -15.375 C 36.53125 -13.257812 36.601562 -11.472656 36.21875 -10.015625 C 35.84375 -8.566406 34.984375 -7.53125 33.640625 -6.90625 C 32.191406 -6.25 30.742188 -6.21875 29.296875 -6.8125 C 27.859375 -7.40625 26.492188 -8.578125 25.203125 -10.328125 C 25.109375 -10.472656 24.988281 -10.625 24.84375 -10.78125 C 24.695312 -10.945312 24.546875 -11.140625 24.390625 -11.359375 C 24.023438 -11.117188 23.691406 -10.863281 23.390625 -10.59375 C 23.085938 -10.320312 22.753906 -10.085938 22.390625 -9.890625 C 21.398438 -9.378906 20.421875 -8.835938 19.453125 -8.265625 C 18.484375 -7.691406 17.457031 -7.269531 16.375 -7 C 13.757812 -6.25 11.335938 -6.285156 9.109375 -7.109375 C 6.878906 -7.941406 5.113281 -9.351562 3.8125 -11.34375 C 2.519531 -13.34375 1.953125 -15.710938 2.109375 -18.453125 C 2.171875 -20.671875 2.675781 -22.859375 3.625 -25.015625 C 4.570312 -27.179688 5.804688 -29.195312 7.328125 -31.0625 C 8.859375 -32.9375 10.59375 -34.519531 12.53125 -35.8125 C 14.476562 -37.113281 16.488281 -37.960938 18.5625 -38.359375 C 20.90625 -38.867188 23.046875 -38.691406 24.984375 -37.828125 C 26.929688 -36.960938 28.800781 -35.898438 30.59375 -34.640625 C 31.175781 -34.234375 31.613281 -33.582031 31.90625 -32.6875 C 32.195312 -31.800781 32.425781 -30.957031 32.59375 -30.15625 C 33.238281 -27.71875 33.816406 -25.25 34.328125 -22.75 C 34.835938 -20.257812 35.394531 -17.800781 36 -15.375 Z M 15.390625 -17.234375 C 17.546875 -18.160156 19.148438 -19.800781 20.203125 -22.15625 C 21.265625 -24.507812 21.519531 -27.03125 20.96875 -29.71875 C 18.632812 -28.6875 16.820312 -27.285156 15.53125 -25.515625 C 14.238281 -23.753906 13.226562 -21.742188 12.5 -19.484375 C 12.414062 -19.148438 12.382812 -18.703125 12.40625 -18.140625 C 12.425781 -17.578125 12.53125 -17.25 12.71875 -17.15625 C 13.101562 -16.976562 13.539062 -16.894531 14.03125 -16.90625 C 14.53125 -16.925781 14.984375 -17.035156 15.390625 -17.234375 Z M 15.390625 -17.234375 "/></g></g></g><g fill="#587d71" fill-opacity="1"><g transform="translate(191.936967, 209.523462)"><g><path d="M 31.6875 -31.765625 C 34.0625 -28.765625 35.550781 -25.546875 36.15625 -22.109375 C 36.757812 -18.671875 36.84375 -15.125 36.40625 -11.46875 C 36.207031 -10.050781 35.644531 -8.925781 34.71875 -8.09375 C 33.800781 -7.257812 32.753906 -6.796875 31.578125 -6.703125 C 30.347656 -6.617188 29.191406 -6.914062 28.109375 -7.59375 C 27.023438 -8.269531 26.296875 -9.3125 25.921875 -10.71875 C 25.429688 -12.351562 25.066406 -14.015625 24.828125 -15.703125 C 24.585938 -17.398438 24.316406 -19.09375 24.015625 -20.78125 C 23.910156 -21.394531 23.785156 -22.03125 23.640625 -22.6875 C 23.492188 -23.34375 23.34375 -24.125 23.1875 -25.03125 C 22.675781 -24.582031 22.234375 -24.207031 21.859375 -23.90625 C 21.492188 -23.613281 21.195312 -23.300781 20.96875 -22.96875 C 19.46875 -20.925781 18.125 -18.8125 16.9375 -16.625 C 15.757812 -14.4375 14.90625 -12.082031 14.375 -9.5625 C 14.019531 -7.75 13.25 -6.363281 12.0625 -5.40625 C 10.882812 -4.445312 9.519531 -4.007812 7.96875 -4.09375 C 6.394531 -4.226562 5.054688 -4.859375 3.953125 -5.984375 C 2.847656 -7.109375 2.289062 -8.59375 2.28125 -10.4375 C 2.269531 -13.695312 2.316406 -16.945312 2.421875 -20.1875 C 2.535156 -23.4375 2.679688 -26.695312 2.859375 -29.96875 C 2.910156 -31.15625 3.179688 -32.242188 3.671875 -33.234375 C 4.160156 -34.222656 5.140625 -34.765625 6.609375 -34.859375 C 7.929688 -34.941406 8.910156 -34.566406 9.546875 -33.734375 C 10.191406 -32.910156 10.703125 -31.9375 11.078125 -30.8125 C 11.117188 -30.613281 11.191406 -30.421875 11.296875 -30.234375 C 11.398438 -30.054688 11.507812 -29.800781 11.625 -29.46875 C 12.4375 -30.207031 13.195312 -30.929688 13.90625 -31.640625 C 14.613281 -32.347656 15.335938 -32.976562 16.078125 -33.53125 C 18.703125 -35.550781 21.441406 -36.40625 24.296875 -36.09375 C 27.148438 -35.789062 29.613281 -34.347656 31.6875 -31.765625 Z M 31.6875 -31.765625 "/></g></g></g><g fill="#587d71" fill-opacity="1"><g transform="translate(231.77655, 208.228111)"><g><path d="M 20.546875 -14.171875 C 20.546875 -14.117188 20.546875 -14.09375 20.546875 -14.09375 C 21.960938 -14.226562 23.375 -14.378906 24.78125 -14.546875 C 26.195312 -14.710938 27.59375 -14.789062 28.96875 -14.78125 C 29.488281 -14.800781 30.070312 -14.664062 30.71875 -14.375 C 31.375 -14.09375 31.753906 -13.765625 31.859375 -13.390625 C 32.015625 -12.878906 32.007812 -12.265625 31.84375 -11.546875 C 31.675781 -10.828125 31.382812 -10.320312 30.96875 -10.03125 C 28.4375 -7.863281 25.734375 -6.210938 22.859375 -5.078125 C 19.984375 -3.941406 16.835938 -3.695312 13.421875 -4.34375 C 10.179688 -4.894531 7.523438 -6.367188 5.453125 -8.765625 C 3.390625 -11.160156 2.257812 -14.003906 2.0625 -17.296875 C 1.875 -20.328125 2.265625 -23.242188 3.234375 -26.046875 C 4.203125 -28.847656 5.632812 -31.351562 7.53125 -33.5625 C 9.425781 -35.78125 11.675781 -37.5 14.28125 -38.71875 C 15.863281 -39.476562 17.46875 -39.894531 19.09375 -39.96875 C 20.726562 -40.050781 22.363281 -39.617188 24 -38.671875 C 25.5 -37.785156 26.675781 -36.503906 27.53125 -34.828125 C 28.394531 -33.148438 28.546875 -31.539062 27.984375 -30 C 27.628906 -29.09375 27.273438 -28.625 26.921875 -28.59375 C 26.566406 -28.5625 26.207031 -28.441406 25.84375 -28.234375 C 25.28125 -27.890625 24.753906 -27.835938 24.265625 -28.078125 C 23.785156 -28.328125 23.425781 -28.632812 23.1875 -29 C 22.144531 -30.34375 21.21875 -31.175781 20.40625 -31.5 C 19.59375 -31.832031 18.539062 -31.457031 17.25 -30.375 C 15.40625 -28.84375 14.101562 -27.054688 13.34375 -25.015625 C 12.582031 -22.984375 12.21875 -20.832031 12.25 -18.5625 C 12.289062 -17.289062 12.675781 -16.253906 13.40625 -15.453125 C 14.132812 -14.648438 15.164062 -14.175781 16.5 -14.03125 C 17.164062 -13.957031 17.835938 -13.957031 18.515625 -14.03125 C 19.203125 -14.101562 19.878906 -14.148438 20.546875 -14.171875 Z M 20.546875 -14.171875 "/></g></g></g><g fill="#587d71" fill-opacity="1"><g transform="translate(266.866579, 207.087188)"><g><path d="M 36.0625 -19.46875 C 36.445312 -17.78125 36.378906 -16.160156 35.859375 -14.609375 C 35.347656 -13.066406 34.570312 -11.585938 33.53125 -10.171875 C 32.570312 -8.910156 31.425781 -8.34375 30.09375 -8.46875 C 28.769531 -8.59375 27.800781 -9.398438 27.1875 -10.890625 C 26.832031 -11.734375 26.554688 -12.632812 26.359375 -13.59375 C 26.160156 -14.5625 25.972656 -15.515625 25.796875 -16.453125 C 25.566406 -17.710938 25.367188 -18.976562 25.203125 -20.25 C 25.046875 -21.53125 24.851562 -22.804688 24.625 -24.078125 C 24.507812 -24.640625 24.3125 -25.203125 24.03125 -25.765625 C 23.75 -26.328125 23.457031 -26.976562 23.15625 -27.71875 C 21.59375 -26.25 20.382812 -24.738281 19.53125 -23.1875 C 18.6875 -21.644531 18.175781 -19.929688 18 -18.046875 C 17.851562 -16.617188 17.660156 -15.210938 17.421875 -13.828125 C 17.191406 -12.453125 16.882812 -11.097656 16.5 -9.765625 C 16.164062 -8.523438 15.5625 -7.546875 14.6875 -6.828125 C 13.8125 -6.109375 12.710938 -5.726562 11.390625 -5.6875 C 10.109375 -5.695312 9.007812 -6.03125 8.09375 -6.6875 C 7.175781 -7.34375 6.554688 -8.238281 6.234375 -9.375 C 5.691406 -11.195312 5.203125 -13.019531 4.765625 -14.84375 C 4.335938 -16.675781 3.992188 -18.53125 3.734375 -20.40625 C 3.210938 -24.988281 2.742188 -29.59375 2.328125 -34.21875 C 1.921875 -38.84375 1.5 -43.4375 1.0625 -48 C 0.988281 -48.894531 1.007812 -49.78125 1.125 -50.65625 C 1.238281 -51.539062 1.347656 -52.441406 1.453125 -53.359375 C 1.703125 -54.785156 2.222656 -55.910156 3.015625 -56.734375 C 3.816406 -57.566406 4.765625 -58 5.859375 -58.03125 C 6.941406 -58.0625 7.921875 -57.738281 8.796875 -57.0625 C 9.671875 -56.382812 10.296875 -55.363281 10.671875 -54 C 11.378906 -51.375 12.019531 -48.75 12.59375 -46.125 C 13.164062 -43.5 13.78125 -40.867188 14.4375 -38.234375 C 14.539062 -37.617188 14.675781 -36.992188 14.84375 -36.359375 C 15.007812 -35.734375 15.203125 -35.085938 15.421875 -34.421875 C 15.929688 -34.535156 16.1875 -34.59375 16.1875 -34.59375 C 19.8125 -36.738281 23.039062 -37.421875 25.875 -36.640625 C 28.71875 -35.859375 31.054688 -33.582031 32.890625 -29.8125 C 33.648438 -28.1875 34.285156 -26.488281 34.796875 -24.71875 C 35.304688 -22.957031 35.726562 -21.207031 36.0625 -19.46875 Z M 36.0625 -19.46875 "/></g></g></g></svg>