<svg xmlns="http://www.w3.org/2000/svg" xmlns:xlink="http://www.w3.org/1999/xlink" width="500" zoomAndPan="magnify" viewBox="0 0 375 374.999991" height="500" preserveAspectRatio="xMidYMid meet" version="1.0"><defs><g/></defs><g fill="#587d71" fill-opacity="1"><g transform="translate(71.91471, 215.635927)"><g><path d="M 19.796875 -30.78125 C 19.535156 -28.875 19.328125 -27.394531 19.171875 -26.34375 C 19.015625 -25.289062 18.867188 -24.363281 18.734375 -23.5625 C 18.609375 -22.769531 18.460938 -21.847656 18.296875 -20.796875 C 18.140625 -19.742188 17.9375 -18.226562 17.6875 -16.25 C 17.5 -14.65625 17.257812 -12.851562 16.96875 -10.84375 C 16.6875 -8.84375 16.273438 -6.898438 15.734375 -5.015625 C 15.191406 -3.140625 14.457031 -1.578125 13.53125 -0.328125 C 12.601562 0.910156 11.375 1.53125 9.84375 1.53125 C 7.875 1.53125 6.535156 0.988281 5.828125 -0.09375 C 5.128906 -1.175781 4.78125 -2.421875 4.78125 -3.828125 C 4.78125 -5.734375 4.875 -7.753906 5.0625 -9.890625 C 5.257812 -12.023438 5.546875 -13.988281 5.921875 -15.78125 C 6.878906 -20.363281 7.660156 -24.519531 8.265625 -28.25 C 8.867188 -31.976562 9.410156 -35.5625 9.890625 -39 C 10.367188 -42.445312 10.816406 -46.035156 11.234375 -49.765625 C 11.648438 -53.492188 12.113281 -57.648438 12.625 -62.234375 C 13 -65.867188 14.207031 -69.132812 16.25 -72.03125 C 18.289062 -74.9375 20.804688 -77.234375 23.796875 -78.921875 C 26.796875 -80.609375 29.953125 -81.453125 33.265625 -81.453125 C 37.921875 -81.453125 41.585938 -80.066406 44.265625 -77.296875 C 46.941406 -74.523438 48.28125 -71.097656 48.28125 -67.015625 C 48.28125 -63.828125 47.894531 -60.59375 47.125 -57.3125 C 46.363281 -54.03125 45.054688 -51.035156 43.203125 -48.328125 C 41.359375 -45.617188 38.78125 -43.46875 35.46875 -41.875 C 33.300781 -40.789062 32.21875 -39.390625 32.21875 -37.671875 C 32.21875 -36.523438 32.664062 -35.21875 33.5625 -33.75 C 35.28125 -30.882812 37.078125 -28.03125 38.953125 -25.1875 C 40.835938 -22.351562 43.003906 -19.804688 45.453125 -17.546875 C 47.910156 -15.285156 50.894531 -13.546875 54.40625 -12.328125 C 55.351562 -11.953125 56.367188 -11.269531 57.453125 -10.28125 C 58.546875 -9.289062 59.488281 -8.300781 60.28125 -7.3125 C 61.082031 -6.320312 61.484375 -5.570312 61.484375 -5.0625 C 61.484375 -3.46875 60.988281 -2.191406 60 -1.234375 C 59.007812 -0.285156 57.78125 0.1875 56.3125 0.1875 C 55.351562 0.1875 54.472656 -0.015625 53.671875 -0.421875 C 52.878906 -0.835938 52.039062 -1.175781 51.15625 -1.4375 C 44.582031 -4.5625 38.96875 -8.640625 34.3125 -13.671875 C 29.664062 -18.703125 25.429688 -24.40625 21.609375 -30.78125 C 21.421875 -30.71875 21.164062 -30.6875 20.84375 -30.6875 C 20.71875 -30.6875 20.554688 -30.6875 20.359375 -30.6875 C 20.171875 -30.6875 19.984375 -30.71875 19.796875 -30.78125 Z M 36.71875 -65.390625 C 36.71875 -67.492188 36.585938 -68.925781 36.328125 -69.6875 C 36.078125 -70.457031 35.503906 -70.84375 34.609375 -70.84375 C 33.273438 -70.84375 31.828125 -70.332031 30.265625 -69.3125 C 28.703125 -68.289062 27.203125 -67 25.765625 -65.4375 C 24.328125 -63.882812 23.144531 -62.257812 22.21875 -60.5625 C 21.300781 -58.875 20.84375 -57.332031 20.84375 -55.9375 C 20.84375 -54.34375 21.207031 -53.066406 21.9375 -52.109375 C 22.675781 -51.148438 23.617188 -50.671875 24.765625 -50.671875 C 25.460938 -50.671875 26.320312 -50.925781 27.34375 -51.4375 C 30.144531 -52.96875 32.359375 -54.863281 33.984375 -57.125 C 35.609375 -59.382812 36.519531 -62.140625 36.71875 -65.390625 Z M 36.71875 -65.390625 "/></g></g></g><g fill="#587d71" fill-opacity="1"><g transform="translate(129.562481, 215.635927)"><g><path d="M 4.78125 -37.1875 C 4.78125 -42.164062 5.59375 -46.738281 7.21875 -50.90625 C 8.84375 -55.082031 11.34375 -58.410156 14.71875 -60.890625 C 18.101562 -63.378906 22.472656 -64.625 27.828125 -64.625 C 32.097656 -64.625 35.804688 -63.539062 38.953125 -61.375 C 42.109375 -59.207031 44.738281 -56.304688 46.84375 -52.671875 C 48.945312 -49.046875 50.523438 -44.96875 51.578125 -40.4375 C 52.628906 -35.914062 53.15625 -31.296875 53.15625 -26.578125 C 53.15625 -23.578125 52.675781 -20.5 51.71875 -17.34375 C 50.769531 -14.195312 49.335938 -11.269531 47.421875 -8.5625 C 45.503906 -5.851562 43.191406 -3.664062 40.484375 -2 C 37.773438 -0.34375 34.640625 0.484375 31.078125 0.484375 C 27.628906 0.484375 24.503906 -0.328125 21.703125 -1.953125 C 18.898438 -3.578125 16.445312 -5.742188 14.34375 -8.453125 C 12.238281 -11.171875 10.46875 -14.1875 9.03125 -17.5 C 7.601562 -20.8125 6.535156 -24.171875 5.828125 -27.578125 C 5.128906 -30.992188 4.78125 -34.195312 4.78125 -37.1875 Z M 30.5 -13.484375 C 32.539062 -13.484375 34.257812 -14.085938 35.65625 -15.296875 C 37.0625 -16.503906 38.128906 -18.113281 38.859375 -20.125 C 39.597656 -22.132812 39.96875 -24.253906 39.96875 -26.484375 C 39.96875 -28.015625 39.820312 -29.832031 39.53125 -31.9375 C 39.25 -34.039062 38.785156 -36.207031 38.140625 -38.4375 C 37.503906 -40.664062 36.691406 -42.734375 35.703125 -44.640625 C 34.722656 -46.554688 33.53125 -48.101562 32.125 -49.28125 C 30.71875 -50.46875 29.125 -51.0625 27.34375 -51.0625 C 24.09375 -51.0625 21.71875 -49.769531 20.21875 -47.1875 C 18.71875 -44.601562 17.96875 -41.523438 17.96875 -37.953125 C 17.96875 -36.867188 18.109375 -35.351562 18.390625 -33.40625 C 18.679688 -31.46875 19.128906 -29.347656 19.734375 -27.046875 C 20.347656 -24.753906 21.128906 -22.570312 22.078125 -20.5 C 23.035156 -18.4375 24.21875 -16.75 25.625 -15.4375 C 27.03125 -14.132812 28.65625 -13.484375 30.5 -13.484375 Z M 30.5 -13.484375 "/></g></g></g><g fill="#587d71" fill-opacity="1"><g transform="translate(187.497063, 215.635927)"><g><path d="M 3.828125 -58.421875 C 4.335938 -60.523438 5.226562 -62.117188 6.5 -63.203125 C 7.769531 -64.285156 9.109375 -64.828125 10.515625 -64.828125 C 11.859375 -64.828125 13.148438 -64.347656 14.390625 -63.390625 C 15.628906 -62.429688 16.535156 -60.929688 17.109375 -58.890625 C 17.492188 -55.003906 18.179688 -50.828125 19.171875 -46.359375 C 20.160156 -41.898438 21.382812 -37.441406 22.84375 -32.984375 C 24.3125 -28.523438 25.875 -24.285156 27.53125 -20.265625 C 28.039062 -19.054688 28.40625 -18.132812 28.625 -17.5 C 28.851562 -16.863281 29.0625 -16.546875 29.25 -16.546875 C 29.445312 -16.546875 30.023438 -17.628906 30.984375 -19.796875 C 33.078125 -24.703125 34.773438 -29.476562 36.078125 -34.125 C 37.390625 -38.78125 38.460938 -43.816406 39.296875 -49.234375 C 39.484375 -50.640625 39.671875 -52.21875 39.859375 -53.96875 C 40.054688 -55.71875 40.394531 -57.390625 40.875 -58.984375 C 41.351562 -60.578125 42.148438 -61.898438 43.265625 -62.953125 C 44.378906 -64.003906 45.988281 -64.53125 48.09375 -64.53125 C 49.8125 -64.53125 51.257812 -63.941406 52.4375 -62.765625 C 53.613281 -61.585938 54.203125 -60.039062 54.203125 -58.125 C 54.203125 -52.519531 53.582031 -46.816406 52.34375 -41.015625 C 51.101562 -35.210938 49.445312 -29.539062 47.375 -24 C 45.300781 -18.457031 42.957031 -13.195312 40.34375 -8.21875 C 39.644531 -6.882812 38.707031 -5.609375 37.53125 -4.390625 C 36.351562 -3.179688 35.09375 -2.191406 33.75 -1.421875 C 32.414062 -0.660156 31.171875 -0.28125 30.015625 -0.28125 C 27.535156 -0.28125 25.382812 -0.726562 23.5625 -1.625 C 21.75 -2.519531 20.394531 -3.953125 19.5 -5.921875 C 15.800781 -13.890625 12.46875 -22.300781 9.5 -31.15625 C 6.539062 -40.019531 4.648438 -49.109375 3.828125 -58.421875 Z M 3.828125 -58.421875 "/></g></g></g><g fill="#587d71" fill-opacity="1"><g transform="translate(245.527255, 215.635927)"><g><path d="M 9.46875 -44.453125 C 9.34375 -46.429688 9.226562 -48.425781 9.125 -50.4375 C 9.03125 -52.445312 8.921875 -54.4375 8.796875 -56.40625 C 6.441406 -56.726562 4.703125 -57.539062 3.578125 -58.84375 C 2.460938 -60.15625 1.90625 -61.578125 1.90625 -63.109375 C 1.90625 -64.628906 2.523438 -66.109375 3.765625 -67.546875 C 5.015625 -68.984375 6.882812 -69.703125 9.375 -69.703125 L 12.328125 -69.703125 C 13.347656 -70.210938 14.335938 -70.46875 15.296875 -70.46875 C 16.316406 -70.46875 17.273438 -70.210938 18.171875 -69.703125 L 39.96875 -69.703125 C 42.007812 -69.128906 43.503906 -68.21875 44.453125 -66.96875 C 45.410156 -65.726562 45.890625 -64.441406 45.890625 -63.109375 C 45.890625 -61.703125 45.347656 -60.359375 44.265625 -59.078125 C 43.179688 -57.804688 41.585938 -56.914062 39.484375 -56.40625 L 24.28125 -56.40625 C 23.320312 -56.09375 22.75 -55.742188 22.5625 -55.359375 C 22.375 -54.972656 22.28125 -54.625 22.28125 -54.3125 C 22.28125 -52.144531 22.390625 -50.070312 22.609375 -48.09375 C 22.835938 -46.113281 23.015625 -44.101562 23.140625 -42.0625 C 23.140625 -41.175781 23.203125 -40.523438 23.328125 -40.109375 C 23.453125 -39.691406 23.832031 -39.484375 24.46875 -39.484375 C 24.664062 -39.484375 24.890625 -39.5 25.140625 -39.53125 C 25.398438 -39.5625 25.65625 -39.609375 25.90625 -39.671875 C 28.269531 -40.117188 30.34375 -40.535156 32.125 -40.921875 C 33.90625 -41.304688 36.070312 -41.53125 38.625 -41.59375 C 40.664062 -41.019531 42.160156 -40.109375 43.109375 -38.859375 C 44.066406 -37.617188 44.546875 -36.332031 44.546875 -35 C 44.546875 -33.59375 44.003906 -32.25 42.921875 -30.96875 C 41.835938 -29.695312 40.242188 -28.804688 38.140625 -28.296875 C 35.847656 -28.234375 33.90625 -28.203125 32.3125 -28.203125 C 30.71875 -28.203125 28.96875 -28.140625 27.0625 -28.015625 C 26.101562 -28.015625 25.398438 -27.835938 24.953125 -27.484375 C 24.503906 -27.140625 24.28125 -26.390625 24.28125 -25.234375 C 24.28125 -23.640625 24.359375 -22.03125 24.515625 -20.40625 C 24.679688 -18.78125 24.765625 -17.046875 24.765625 -15.203125 C 24.765625 -14.117188 25.113281 -13.414062 25.8125 -13.09375 C 26.507812 -12.78125 27.304688 -12.625 28.203125 -12.625 C 31.066406 -12.625 33.914062 -12.941406 36.75 -13.578125 C 39.59375 -14.210938 42.429688 -14.847656 45.265625 -15.484375 C 48.109375 -16.117188 50.960938 -16.4375 53.828125 -16.4375 C 56.253906 -16.4375 58.117188 -15.765625 59.421875 -14.421875 C 60.722656 -13.085938 61.375 -11.625 61.375 -10.03125 C 61.375 -8.632812 60.847656 -7.28125 59.796875 -5.96875 C 58.742188 -4.664062 57.132812 -3.757812 54.96875 -3.25 C 51.78125 -3.0625 48.671875 -2.628906 45.640625 -1.953125 C 42.617188 -1.285156 39.515625 -0.664062 36.328125 -0.09375 C 33.140625 0.476562 29.695312 0.765625 26 0.765625 C 23.382812 0.765625 20.960938 0.382812 18.734375 -0.375 C 16.503906 -1.144531 14.703125 -2.53125 13.328125 -4.53125 C 11.960938 -6.539062 11.28125 -9.332031 11.28125 -12.90625 C 11.28125 -18.070312 11.101562 -23.25 10.75 -28.4375 C 10.40625 -33.632812 9.976562 -38.972656 9.46875 -44.453125 Z M 9.46875 -44.453125 "/></g></g></g></svg>